<?xml version="1.0" encoding="iso-8859-1"?>
<!-- Generator: Adobe Illustrator 19.0.0, SVG Export Plug-In . SVG Version: 6.00 Build 0)  -->
<svg version="1.1" id="Capa_1" xmlns="http://www.w3.org/2000/svg" xmlns:xlink="http://www.w3.org/1999/xlink" x="0px" y="0px"
	 viewBox="0 0 512 512" style="enable-background:new 0 0 512 512;" xml:space="preserve">
<circle style="fill:#56B4DD;" cx="256" cy="256" r="256"/>
<path style="opacity:0.2;fill:#FFFFFF;enable-background:new    ;" d="M256,0C157.672,0,72.309,55.445,29.425,136.767
	c33.008,39.269,87.846,58.438,166.257,22.74C303.847,110.262,320.237,49.165,366.463,25C333.02,8.978,295.559,0,256,0z"/>
<path style="opacity:0.1;enable-background:new    ;" d="M63.094,87.728c43.49,31.167,135.64,62.434,134.939-81.135
	C144.76,18.928,97.863,47.896,63.094,87.728z"/>
<path style="opacity:0.1;enable-background:new    ;" d="M511.175,235.417c-28.154,9.607-71.336,14.581-140.349,10.904
	c-136.933-7.296-239.514,112.887-287.688,198.492C128.684,486.534,189.365,512,256,512c141.385,0,256-114.615,256-256
	C512,249.07,511.715,242.208,511.175,235.417z"/>
<g>
	<path style="opacity:0.2;fill:#FFFFFF;enable-background:new    ;" d="M258.605,511.967
		c104.045-1.039,193.218-64.135,232.286-154.055C266.657,291.574,264.51,443.68,258.605,511.967z"/>
	<path style="fill:#FFFFFF;" d="M176.35,133.092v194.251c-7.84-1.216-16.869-0.611-26.488,1.967
		c-30.033,8.047-54.379,32.17-54.379,58.422c0,26.252,24.346,41.01,54.379,32.963s54.379-35.852,54.379-62.104V189.912
		c0-4.522,3.037-8.48,7.405-9.65l134.291-35.983c6.345-1.7,12.576,3.081,12.576,9.65v124.604
		c-7.839-1.216-16.869-0.611-26.488,1.967c-30.033,8.047-54.379,32.17-54.379,58.422s24.346,41.01,54.379,32.963
		s54.379-35.852,54.379-62.104V84.948c0-9.987-9.473-17.256-19.12-14.672L187.608,118.42
		C180.968,120.199,176.35,126.217,176.35,133.092z"/>
</g>
<path style="opacity:0.1;enable-background:new    ;" d="M286.21,481.79c-141.385,0-256-114.615-256-256
	c0-63.002,22.772-120.676,60.516-165.274C35.24,107.475,0,177.617,0,256c0,141.385,114.615,256,256,256
	c78.383,0,148.525-35.24,195.484-90.726C406.886,459.018,349.212,481.79,286.21,481.79z"/>
<g>
</g>
<g>
</g>
<g>
</g>
<g>
</g>
<g>
</g>
<g>
</g>
<g>
</g>
<g>
</g>
<g>
</g>
<g>
</g>
<g>
</g>
<g>
</g>
<g>
</g>
<g>
</g>
<g>
</g>
</svg>
